REM DIRINDEX 1\6,1\2\7,1\2\8,1\2\9,1\3\10,1\3\11,1\4\12,1\4\13,1\4\14,1\5\15,1\5\16,1\5\17
REM DIRNAME cjc041,folder01,folder02,folder03,folder04,folder05,folder06,folder07,folder08,folder09,folder10,folder11,folder12,folder13,folder14,folder15,folder16
TITLE ""
FILE "3Q_t2_0016-0031.mp3" MP3
  TRACK 01 AUDIO
    TITLE "7:cjc041_3459"
    INDEX 01 00:00:00
  TRACK 02 AUDIO
    TITLE "0:"
    INDEX 01 00:01:01
  TRACK 03 AUDIO
    TITLE "8:cjc041_3460"
    INDEX 01 00:01:58
  TRACK 04 AUDIO
    TITLE "0:"
    INDEX 01 00:05:73
  TRACK 05 AUDIO
    TITLE "9:cjc041_3461"
    INDEX 01 00:06:53
  TRACK 06 AUDIO
    TITLE "0:"
    INDEX 01 00:07:66
  TRACK 07 AUDIO
    TITLE "7:cjc041_3462"
    INDEX 01 00:09:47
  TRACK 08 AUDIO
    TITLE "0:"
    INDEX 01 00:10:61
  TRACK 09 AUDIO
    TITLE "8:cjc041_3463"
    INDEX 01 00:11:39
  TRACK 10 AUDIO
    TITLE "0:"
    INDEX 01 00:12:54
  TRACK 11 AUDIO
    TITLE "9:cjc041_3464"
    INDEX 01 00:13:32
  TRACK 12 AUDIO
    TITLE "0:"
    INDEX 01 00:14:49
  TRACK 13 AUDIO
    TITLE "7:cjc041_3465"
    INDEX 01 00:16:28
  TRACK 14 AUDIO
    TITLE "0:"
    INDEX 01 00:17:39
  TRACK 15 AUDIO
    TITLE "8:cjc041_3466"
    INDEX 01 00:18:19
  TRACK 16 AUDIO
    TITLE "0:"
    INDEX 01 00:21:39
  TRACK 17 AUDIO
    TITLE "9:cjc041_3467"
    INDEX 01 00:22:13
  TRACK 18 AUDIO
    TITLE "0:"
    INDEX 01 00:23:22
  TRACK 19 AUDIO
    TITLE "7:cjc041_3468"
    INDEX 01 00:25:05
  TRACK 20 AUDIO
    TITLE "0:"
    INDEX 01 00:26:09
  TRACK 21 AUDIO
    TITLE "8:cjc041_3469"
    INDEX 01 00:26:67
  TRACK 22 AUDIO
    TITLE "0:"
    INDEX 01 00:31:33
  TRACK 23 AUDIO
    TITLE "9:cjc041_3470"
    INDEX 01 00:32:15
  TRACK 24 AUDIO
    TITLE "0:"
    INDEX 01 00:33:24
  TRACK 25 AUDIO
    TITLE "7:cjc041_3471"
    INDEX 01 00:35:08
  TRACK 26 AUDIO
    TITLE "0:"
    INDEX 01 00:36:33
  TRACK 27 AUDIO
    TITLE "8:cjc041_3472"
    INDEX 01 00:37:12
  TRACK 28 AUDIO
    TITLE "0:"
    INDEX 01 00:40:36
  TRACK 29 AUDIO
    TITLE "9:cjc041_3473"
    INDEX 01 00:41:18
  TRACK 30 AUDIO
    TITLE "0:"
    INDEX 01 00:42:45
  TRACK 31 AUDIO
    TITLE "7:cjc041_3474"
    INDEX 01 00:44:28
  TRACK 32 AUDIO
    TITLE "0:"
    INDEX 01 00:45:24
  TRACK 33 AUDIO
    TITLE "8:cjc041_3475"
    INDEX 01 00:46:09
  TRACK 34 AUDIO
    TITLE "0:"
    INDEX 01 00:47:25
  TRACK 35 AUDIO
    TITLE "9:cjc041_3476"
    INDEX 01 00:48:06
  TRACK 36 AUDIO
    TITLE "0:"
    INDEX 01 00:49:06
  TRACK 37 AUDIO
    TITLE "7:cjc041_3477"
    INDEX 01 00:50:62
  TRACK 38 AUDIO
    TITLE "0:"
    INDEX 01 00:51:73
  TRACK 39 AUDIO
    TITLE "8:cjc041_3478"
    INDEX 01 00:52:49
  TRACK 40 AUDIO
    TITLE "0:"
    INDEX 01 00:53:72
  TRACK 41 AUDIO
    TITLE "9:cjc041_3479"
    INDEX 01 00:54:52
  TRACK 42 AUDIO
    TITLE "0:"
    INDEX 01 00:55:63
  TRACK 43 AUDIO
    TITLE "7:cjc041_3480"
    INDEX 01 00:57:46
  TRACK 44 AUDIO
    TITLE "0:"
    INDEX 01 00:58:64
  TRACK 45 AUDIO
    TITLE "8:cjc041_3481"
    INDEX 01 00:59:41
  TRACK 46 AUDIO
    TITLE "0:"
    INDEX 01 01:01:03
  TRACK 47 AUDIO
    TITLE "9:cjc041_3482"
    INDEX 01 01:01:60
  TRACK 48 AUDIO
    TITLE "0:"
    INDEX 01 01:03:06
  TRACK 49 AUDIO
    TITLE "7:cjc041_3483"
    INDEX 01 01:04:60
  TRACK 50 AUDIO
    TITLE "0:"
    INDEX 01 01:06:04
  TRACK 51 AUDIO
    TITLE "8:cjc041_3484"
    INDEX 01 01:06:61
  TRACK 52 AUDIO
    TITLE "0:"
    INDEX 01 01:09:30
  TRACK 53 AUDIO
    TITLE "9:cjc041_3485"
    INDEX 01 01:10:06
  TRACK 54 AUDIO
    TITLE "0:"
    INDEX 01 01:11:25
  TRACK 55 AUDIO
    TITLE "7:cjc041_3486"
    INDEX 01 01:13:02
  TRACK 56 AUDIO
    TITLE "0:"
    INDEX 01 01:14:16
  TRACK 57 AUDIO
    TITLE "8:cjc041_3487"
    INDEX 01 01:14:66
  TRACK 58 AUDIO
    TITLE "0:"
    INDEX 01 01:16:12
  TRACK 59 AUDIO
    TITLE "9:cjc041_3488"
    INDEX 01 01:16:63
  TRACK 60 AUDIO
    TITLE "0:"
    INDEX 01 01:18:04
  TRACK 61 AUDIO
    TITLE "7:cjc041_3489"
    INDEX 01 01:19:56
  TRACK 62 AUDIO
    TITLE "0:"
    INDEX 01 01:20:69
  TRACK 63 AUDIO
    TITLE "8:cjc041_3490"
    INDEX 01 01:21:47
  TRACK 64 AUDIO
    TITLE "0:"
    INDEX 01 01:25:33
  TRACK 65 AUDIO
    TITLE "9:cjc041_3491"
    INDEX 01 01:26:13
  TRACK 66 AUDIO
    TITLE "0:"
    INDEX 01 01:27:24
  TRACK 67 AUDIO
    TITLE "7:cjc041_3492"
    INDEX 01 01:29:13
  TRACK 68 AUDIO
    TITLE "0:"
    INDEX 01 01:30:36
  TRACK 69 AUDIO
    TITLE "8:cjc041_3493"
    INDEX 01 01:31:14
  TRACK 70 AUDIO
    TITLE "0:"
    INDEX 01 01:32:19
  TRACK 71 AUDIO
    TITLE "9:cjc041_3494"
    INDEX 01 01:33:01
  TRACK 72 AUDIO
    TITLE "0:"
    INDEX 01 01:34:28
  TRACK 73 AUDIO
    TITLE "7:cjc041_3495"
    INDEX 01 01:36:13
  TRACK 74 AUDIO
    TITLE "0:"
    INDEX 01 01:37:22
  TRACK 75 AUDIO
    TITLE "8:cjc041_3496"
    INDEX 01 01:38:04
  TRACK 76 AUDIO
    TITLE "0:"
    INDEX 01 01:39:64
  TRACK 77 AUDIO
    TITLE "9:cjc041_3497"
    INDEX 01 01:40:48
  TRACK 78 AUDIO
    TITLE "0:"
    INDEX 01 01:41:57
  TRACK 79 AUDIO
    TITLE "7:cjc041_3498"
    INDEX 01 01:43:41
  TRACK 80 AUDIO
    TITLE "0:"
    INDEX 01 01:44:60
  TRACK 81 AUDIO
    TITLE "8:cjc041_3499"
    INDEX 01 01:45:40
  TRACK 82 AUDIO
    TITLE "0:"
    INDEX 01 01:46:63
  TRACK 83 AUDIO
    TITLE "9:cjc041_3500"
    INDEX 01 01:47:39
  TRACK 84 AUDIO
    TITLE "0:"
    INDEX 01 01:48:58
  TRACK 85 AUDIO
    TITLE "7:cjc041_3501"
    INDEX 01 01:50:43
  TRACK 86 AUDIO
    TITLE "0:"
    INDEX 01 01:51:54
  TRACK 87 AUDIO
    TITLE "8:cjc041_3502"
    INDEX 01 01:52:34
  TRACK 88 AUDIO
    TITLE "0:"
    INDEX 01 01:55:03
  TRACK 89 AUDIO
    TITLE "9:cjc041_3503"
    INDEX 01 01:55:58
  TRACK 90 AUDIO
    TITLE "0:"
    INDEX 01 01:56:67
  TRACK 91 AUDIO
    TITLE "7:cjc041_3504"
    INDEX 01 01:58:56
  TRACK 92 AUDIO
    TITLE "0:"
    INDEX 01 01:59:55
  TRACK 93 AUDIO
    TITLE "8:cjc041_3505"
    INDEX 01 02:00:39
  TRACK 94 AUDIO
    TITLE "0:"
    INDEX 01 02:01:48
  TRACK 95 AUDIO
    TITLE "9:cjc041_3506"
    INDEX 01 02:02:32
  TRACK 96 AUDIO
    TITLE "0:"
    INDEX 01 02:03:34
